<svg xmlns="http://www.w3.org/2000/svg" version="1.1" xmlns:xlink="http://www.w3.org/1999/xlink" xmlns:svgjs="http://svgjs.dev/svgjs" width="1500" height="426" viewBox="0 0 1500 426"><g transform="matrix(1,0,0,1,0.9047964809383302,0.4589381443298919)"><svg viewBox="0 0 341 97" data-background-color="#ffffff" preserveAspectRatio="xMidYMid meet" height="426" width="1500" xmlns="http://www.w3.org/2000/svg" xmlns:xlink="http://www.w3.org/1999/xlink"><g id="tight-bounds" transform="matrix(1,0,0,1,-0.2056903999999804,-0.10450000000000159)"><svg viewBox="0 0 341.41138079999996 97.20882325565701" height="97.20882325565701" width="341.41138079999996"><g><svg viewBox="0 0 341.41138079999996 97.20882325565701" height="97.20882325565701" width="341.41138079999996"><g><svg viewBox="0 0 341.41138079999996 97.20882325565701" height="97.20882325565701" width="341.41138079999996"><g><svg viewBox="0 0 341.41138079999996 97.20882325565701" height="97.20882325565701" width="341.41138079999996"><g><path d="M0 97.209v-97.209h341.411v97.209z" fill="#192b5e" stroke="transparent" stroke-width="0" rx="0%" data-fill-palette-color="tertiary"></path><path d="M4.509 92.7v-88.191h332.393v88.191z" fill="#ffffff" stroke="transparent" stroke-width="0" rx="0%" data-fill-palette-color="quaternary"></path><path d="M13.527 83.682v-70.155h314.357v70.155z" fill="#192b5e" stroke="transparent" stroke-width="0" data-fill-palette-color="tertiary"></path></g><g transform="matrix(1,0,0,1,27.054309599999996,27.054309599999996)" id="textblocktransform"><svg viewBox="0 0 287.30276159999994 43.10020405565702" height="43.10020405565702" width="287.30276159999994" id="textblock"><g><svg viewBox="0 0 287.30276159999994 21.064339218576645" height="21.064339218576645" width="287.30276159999994"><g transform="matrix(1,0,0,1,0,0)"><svg width="287.30276159999994" viewBox="3.78 -33.48 465.04 34.11" height="21.064339218576645" data-palette-color="#ffffff"><path d="M14.48 0L6.58 0 6.58-3.5 14.33-3.5Q18.57-3.5 20.71-5.81 22.85-8.13 22.85-12.43L22.85-12.43 22.85-19.55Q22.85-23.88 20.71-26.18 18.57-28.48 14.33-28.48L14.33-28.48 6.55-28.48 6.55-31.95 14.48-31.95Q20.68-31.95 23.85-28.76 27.03-25.58 27.03-19.58L27.03-19.58 27.03-12.4Q27.03-6.43 23.85-3.21 20.68 0 14.48 0L14.48 0ZM7.88 0L3.78 0 3.78-31.95 7.88-31.95 7.88 0ZM51.37 0L47.35 0 47.52-5.93 47.37-6.55 47.37-14.33 47.4-15.75Q47.4-18.73 45.89-20.15 44.37-21.58 41.1-21.58L41.1-21.58Q38.47-21.58 36.29-20.83 34.1-20.08 32.4-19.07L32.4-19.07 32.77-22.53Q33.72-23.1 35.04-23.66 36.35-24.23 38.04-24.6 39.72-24.98 41.75-24.98L41.75-24.98Q44.37-24.98 46.21-24.34 48.05-23.7 49.19-22.5 50.32-21.3 50.85-19.6 51.37-17.9 51.37-15.8L51.37-15.8 51.37 0ZM38.95 0.53L38.95 0.53Q35.32 0.53 33.39-1.24 31.45-3 31.45-6.28L31.45-6.28 31.45-7Q31.45-10.38 33.54-12.04 35.62-13.7 40.17-14.35L40.17-14.35 47.9-15.45 48.12-12.5 40.67-11.43Q37.87-11.03 36.67-10.06 35.47-9.1 35.47-7.23L35.47-7.23 35.47-6.83Q35.47-4.9 36.66-3.88 37.85-2.85 40.22-2.85L40.22-2.85Q42.32-2.85 43.82-3.58 45.32-4.3 46.25-5.53 47.17-6.75 47.5-8.25L47.5-8.25 48.12-5.5 47.35-5.5Q47-3.9 46.04-2.53 45.07-1.15 43.35-0.31 41.62 0.53 38.95 0.53ZM66.45 0.5L66.45 0.5Q63.62 0.5 61.9-0.35 60.17-1.2 59.4-2.93 58.62-4.65 58.62-7.23L58.62-7.23 58.62-22.63 62.62-22.63 62.62-7.7Q62.62-5.3 63.72-4.16 64.82-3.03 67.42-3.03L67.42-3.03Q68.9-3.03 70.26-3.35 71.62-3.68 72.82-4.28L72.82-4.28 72.45-0.8Q71.27-0.2 69.7 0.15 68.12 0.5 66.45 0.5ZM72.2-20.8L54.62-20.8 54.62-24.05 72.57-24.05 72.2-20.8ZM62.52-23.65L58.65-23.65 58.62-30.5 62.7-31.03 62.52-23.65ZM95.84 0L91.82 0 91.99-5.93 91.84-6.55 91.84-14.33 91.87-15.75Q91.87-18.73 90.36-20.15 88.84-21.58 85.57-21.58L85.57-21.58Q82.94-21.58 80.76-20.83 78.57-20.08 76.87-19.07L76.87-19.07 77.24-22.53Q78.19-23.1 79.51-23.66 80.82-24.23 82.51-24.6 84.19-24.98 86.22-24.98L86.22-24.98Q88.84-24.98 90.68-24.34 92.52-23.7 93.66-22.5 94.79-21.3 95.32-19.6 95.84-17.9 95.84-15.8L95.84-15.8 95.84 0ZM83.42 0.53L83.42 0.53Q79.79 0.53 77.86-1.24 75.92-3 75.92-6.28L75.92-6.28 75.92-7Q75.92-10.38 78.01-12.04 80.09-13.7 84.64-14.35L84.64-14.35 92.37-15.45 92.59-12.5 85.14-11.43Q82.34-11.03 81.14-10.06 79.94-9.1 79.94-7.23L79.94-7.23 79.94-6.83Q79.94-4.9 81.13-3.88 82.32-2.85 84.69-2.85L84.69-2.85Q86.79-2.85 88.29-3.58 89.79-4.3 90.72-5.53 91.64-6.75 91.97-8.25L91.97-8.25 92.59-5.5 91.82-5.5Q91.47-3.9 90.51-2.53 89.54-1.15 87.82-0.31 86.09 0.53 83.42 0.53ZM125.96-10.63L116.79-10.63 116.79-14.08 125.86-14.08Q129.14-14.08 130.61-15.71 132.09-17.35 132.09-20.23L132.09-20.23 132.09-22.4Q132.09-25.33 130.63-26.93 129.16-28.53 125.91-28.53L125.91-28.53 116.76-28.53 116.76-31.95 125.99-31.95Q131.34-31.95 133.78-29.44 136.21-26.93 136.21-22.53L136.21-22.53 136.21-20.13Q136.21-15.68 133.75-13.15 131.29-10.63 125.96-10.63L125.96-10.63ZM118.19 0L114.09 0 114.09-31.95 118.16-31.95 118.16-13.05 118.19-11.2 118.19 0ZM145.49-14.93L145.49-14.93 144.56-18.05 145.56-18.1Q146.36-21.2 148.31-22.99 150.26-24.78 153.49-24.78L153.49-24.78Q154.29-24.78 154.92-24.65 155.56-24.53 156.06-24.35L156.06-24.35 156.31-20.43Q155.69-20.63 154.92-20.75 154.16-20.88 153.24-20.88L153.24-20.88Q150.49-20.88 148.45-19.35 146.41-17.82 145.49-14.93ZM145.69 0L141.64 0 141.64-24.4 145.59-24.4 145.39-17.2 145.69-16.9 145.69 0ZM169.98 0.63L169.98 0.63Q164.73 0.63 162.02-2.21 159.31-5.05 159.31-10.38L159.31-10.38 159.31-14.1Q159.31-19.4 162.03-22.23 164.76-25.05 169.98-25.05L169.98-25.05Q175.23-25.05 177.95-22.23 180.66-19.4 180.66-14.1L180.66-14.1 180.66-10.38Q180.66-5.05 177.95-2.21 175.23 0.63 169.98 0.63ZM169.98-2.68L169.98-2.68Q173.23-2.68 174.92-4.6 176.61-6.53 176.61-10.15L176.61-10.15 176.61-14.33Q176.61-17.93 174.92-19.84 173.23-21.75 169.98-21.75L169.98-21.75Q166.76-21.75 165.06-19.84 163.36-17.93 163.36-14.33L163.36-14.33 163.36-10.15Q163.36-6.53 165.06-4.6 166.76-2.68 169.98-2.68ZM195.16 0.5L195.16 0.5Q192.33 0.5 190.61-0.35 188.88-1.2 188.11-2.93 187.33-4.65 187.33-7.23L187.33-7.23 187.33-22.63 191.33-22.63 191.33-7.7Q191.33-5.3 192.43-4.16 193.53-3.03 196.13-3.03L196.13-3.03Q197.61-3.03 198.97-3.35 200.33-3.68 201.53-4.28L201.53-4.28 201.16-0.8Q199.98-0.2 198.41 0.15 196.83 0.5 195.16 0.5ZM200.91-20.8L183.33-20.8 183.33-24.05 201.28-24.05 200.91-20.8ZM191.23-23.65L187.36-23.65 187.33-30.5 191.41-31.03 191.23-23.65ZM216.3 0.55L216.3 0.55Q210.73 0.55 207.9-2.18 205.08-4.9 205.08-9.98L205.08-9.98 205.08-14.33Q205.08-19.48 207.7-22.26 210.33-25.05 215.38-25.05L215.38-25.05Q218.78-25.05 221.05-23.79 223.33-22.53 224.48-20.2 225.63-17.88 225.63-14.65L225.63-14.65 225.63-13.75Q225.63-12.95 225.57-12.15 225.5-11.35 225.4-10.58L225.4-10.58 221.68-10.58Q221.73-11.78 221.74-12.85 221.75-13.93 221.75-14.83L221.75-14.83Q221.75-17.05 221.04-18.59 220.33-20.13 218.92-20.94 217.5-21.75 215.38-21.75L215.38-21.75Q212.23-21.75 210.65-19.93 209.08-18.1 209.08-14.7L209.08-14.7 209.08-12.38 209.1-11.88 209.1-9.55Q209.1-8.03 209.55-6.8 210-5.58 210.97-4.69 211.93-3.8 213.42-3.34 214.9-2.88 216.95-2.88L216.95-2.88Q219.33-2.88 221.38-3.5 223.43-4.13 225.23-5.2L225.23-5.2 224.85-1.7Q223.23-0.68 221.08-0.06 218.93 0.55 216.3 0.55ZM224.55-10.58L207.2-10.58 207.2-13.63 224.55-13.63 224.55-10.58ZM240.43 0.55L240.43 0.55Q235.18 0.55 232.61-2.29 230.05-5.13 230.05-10.33L230.05-10.33 230.05-14.13Q230.05-19.35 232.63-22.16 235.2-24.98 240.43-24.98L240.43-24.98Q241.98-24.98 243.25-24.69 244.53-24.4 245.54-23.94 246.55-23.48 247.25-22.98L247.25-22.98 247.6-19.45Q246.43-20.35 244.81-20.98 243.2-21.6 241.03-21.6L241.03-21.6Q237.53-21.6 235.81-19.66 234.1-17.73 234.1-14.03L234.1-14.03 234.1-10.43Q234.1-6.8 235.81-4.85 237.53-2.9 241.03-2.9L241.03-2.9Q243.28-2.9 244.91-3.53 246.55-4.15 247.83-5.05L247.83-5.05 247.45-1.48Q246.35-0.73 244.58-0.09 242.8 0.55 240.43 0.55ZM261.6 0.5L261.6 0.5Q258.77 0.5 257.05-0.35 255.32-1.2 254.55-2.93 253.77-4.65 253.77-7.23L253.77-7.23 253.77-22.63 257.77-22.63 257.77-7.7Q257.77-5.3 258.87-4.16 259.97-3.03 262.57-3.03L262.57-3.03Q264.05-3.03 265.41-3.35 266.77-3.68 267.97-4.28L267.97-4.28 267.6-0.8Q266.42-0.2 264.85 0.15 263.27 0.5 261.6 0.5ZM267.35-20.8L249.77-20.8 249.77-24.05 267.72-24.05 267.35-20.8ZM257.67-23.65L253.8-23.65 253.77-30.5 257.85-31.03 257.67-23.65ZM276.62 0L272.57 0 272.57-24.4 276.62-24.4 276.62 0ZM274.6-28.4L274.6-28.4Q273.35-28.4 272.73-29.06 272.12-29.73 272.12-30.88L272.12-30.88 272.12-31Q272.12-32.18 272.73-32.83 273.35-33.48 274.6-33.48L274.6-33.48Q275.85-33.48 276.47-32.83 277.1-32.18 277.1-31L277.1-31 277.1-30.88Q277.1-29.7 276.47-29.05 275.85-28.4 274.6-28.4ZM293.02 0.63L293.02 0.63Q287.77 0.63 285.06-2.21 282.34-5.05 282.34-10.38L282.34-10.38 282.34-14.1Q282.34-19.4 285.07-22.23 287.79-25.05 293.02-25.05L293.02-25.05Q298.27-25.05 300.98-22.23 303.69-19.4 303.69-14.1L303.69-14.1 303.69-10.38Q303.69-5.05 300.98-2.21 298.27 0.63 293.02 0.63ZM293.02-2.68L293.02-2.68Q296.27-2.68 297.96-4.6 299.64-6.53 299.64-10.15L299.64-10.15 299.64-14.33Q299.64-17.93 297.96-19.84 296.27-21.75 293.02-21.75L293.02-21.75Q289.79-21.75 288.09-19.84 286.39-17.93 286.39-14.33L286.39-14.33 286.39-10.15Q286.39-6.53 288.09-4.6 289.79-2.68 293.02-2.68ZM329.69 0L325.64 0 325.64-15.18Q325.64-17.15 325.1-18.57 324.57-20 323.35-20.79 322.14-21.58 320.04-21.58L320.04-21.58Q318.12-21.58 316.7-20.85 315.29-20.13 314.42-18.89 313.54-17.65 313.19-16.07L313.19-16.07 312.47-18.95 313.34-18.95Q313.74-20.6 314.74-21.96 315.74-23.33 317.43-24.14 319.12-24.95 321.57-24.95L321.57-24.95Q324.47-24.95 326.25-23.85 328.04-22.75 328.87-20.69 329.69-18.63 329.69-15.63L329.69-15.63 329.69 0ZM313.37 0L309.32 0 309.32-24.4 313.37-24.4 313.19-18.55 313.37-18.32 313.37 0ZM359.88-10.63L350.71-10.63 350.71-14.08 359.79-14.08Q363.06-14.08 364.54-15.71 366.01-17.35 366.01-20.23L366.01-20.23 366.01-22.4Q366.01-25.33 364.55-26.93 363.09-28.53 359.84-28.53L359.84-28.53 350.69-28.53 350.69-31.95 359.91-31.95Q365.26-31.95 367.7-29.44 370.13-26.93 370.13-22.53L370.13-22.53 370.13-20.13Q370.13-15.68 367.67-13.15 365.21-10.63 359.88-10.63L359.88-10.63ZM352.11 0L348.01 0 348.01-31.95 352.09-31.95 352.09-13.05 352.11-11.2 352.11 0ZM385.26 0.63L385.26 0.63Q380.01 0.63 377.3-2.21 374.58-5.05 374.58-10.38L374.58-10.38 374.58-14.1Q374.58-19.4 377.31-22.23 380.03-25.05 385.26-25.05L385.26-25.05Q390.51-25.05 393.22-22.23 395.93-19.4 395.93-14.1L395.93-14.1 395.93-10.38Q395.93-5.05 393.22-2.21 390.51 0.63 385.26 0.63ZM385.26-2.68L385.26-2.68Q388.51-2.68 390.19-4.6 391.88-6.53 391.88-10.15L391.88-10.15 391.88-14.33Q391.88-17.93 390.19-19.84 388.51-21.75 385.26-21.75L385.26-21.75Q382.03-21.75 380.33-19.84 378.63-17.93 378.63-14.33L378.63-14.33 378.63-10.15Q378.63-6.53 380.33-4.6 382.03-2.68 385.26-2.68ZM405.4-14.93L405.4-14.93 404.48-18.05 405.48-18.1Q406.28-21.2 408.23-22.99 410.18-24.78 413.4-24.78L413.4-24.78Q414.2-24.78 414.84-24.65 415.48-24.53 415.98-24.35L415.98-24.35 416.23-20.43Q415.61-20.63 414.84-20.75 414.08-20.88 413.15-20.88L413.15-20.88Q410.4-20.88 408.37-19.35 406.33-17.82 405.4-14.93ZM405.61 0L401.56 0 401.56-24.4 405.5-24.4 405.31-17.2 405.61-16.9 405.61 0ZM429.08 0.5L429.08 0.5Q426.25 0.5 424.53-0.35 422.8-1.2 422.03-2.93 421.25-4.65 421.25-7.23L421.25-7.23 421.25-22.63 425.25-22.63 425.25-7.7Q425.25-5.3 426.35-4.16 427.45-3.03 430.05-3.03L430.05-3.03Q431.53-3.03 432.89-3.35 434.25-3.68 435.45-4.28L435.45-4.28 435.08-0.8Q433.9-0.2 432.33 0.15 430.75 0.5 429.08 0.5ZM434.83-20.8L417.25-20.8 417.25-24.05 435.2-24.05 434.83-20.8ZM425.15-23.65L421.28-23.65 421.25-30.5 425.33-31.03 425.15-23.65ZM458.47 0L454.45 0 454.62-5.93 454.47-6.55 454.47-14.33 454.5-15.75Q454.5-18.73 452.99-20.15 451.47-21.58 448.2-21.58L448.2-21.58Q445.57-21.58 443.39-20.83 441.2-20.08 439.5-19.07L439.5-19.07 439.87-22.53Q440.82-23.1 442.14-23.66 443.45-24.23 445.14-24.6 446.82-24.98 448.85-24.98L448.85-24.98Q451.47-24.98 453.31-24.34 455.15-23.7 456.29-22.5 457.42-21.3 457.95-19.6 458.47-17.9 458.47-15.8L458.47-15.8 458.47 0ZM446.05 0.53L446.05 0.53Q442.42 0.53 440.49-1.24 438.55-3 438.55-6.28L438.55-6.28 438.55-7Q438.55-10.38 440.64-12.04 442.72-13.7 447.27-14.35L447.27-14.35 455-15.45 455.22-12.5 447.77-11.43Q444.97-11.03 443.77-10.06 442.57-9.1 442.57-7.23L442.57-7.23 442.57-6.83Q442.57-4.9 443.76-3.88 444.95-2.85 447.32-2.85L447.32-2.85Q449.42-2.85 450.92-3.58 452.42-4.3 453.35-5.53 454.27-6.75 454.6-8.25L454.6-8.25 455.22-5.5 454.45-5.5Q454.1-3.9 453.14-2.53 452.17-1.15 450.45-0.31 448.72 0.53 446.05 0.53ZM468.82 0L464.8 0 464.8-33.13 468.82-33.13 468.82 0Z" opacity="1" transform="matrix(1,0,0,1,0,0)" fill="#ffffff" class="wordmark-text-0" data-fill-palette-color="quaternary" id="text-0"></path></svg></g></svg></g><g transform="matrix(1,0,0,1,0,30.082442418576644)"><svg viewBox="0 0 287.30276159999994 13.017761637080367" height="13.017761637080367" width="287.30276159999994"><g transform="matrix(1,0,0,1,0,0)"><svg width="287.30276159999994" viewBox="2.66 -33.15 941.86 42.67" height="13.017761637080367" data-palette-color="#ffffff"><path d="M2.66-1.68L3.66-4.08Q4.88-3.39 6.82-2.87 8.76-2.34 10.55-2.34L10.55-2.34Q12.79-2.34 14.17-3.31 15.55-4.27 15.55-6.47L15.55-6.47Q15.55-8.18 14.77-9.02 13.99-9.86 12.35-10.38L12.35-10.38 8.69-11.52Q7.23-11.99 6.29-12.44 5.35-12.89 4.54-13.61 3.74-14.33 3.37-15.39 3-16.46 3-17.94L3-17.94Q3-21.22 5.25-22.81 7.5-24.41 10.91-24.41 14.33-24.41 17.41-23L17.41-23 16.48-20.65Q13.96-21.85 11.13-21.85L11.13-21.85Q8.86-21.85 7.42-20.89 5.98-19.92 5.98-17.82L5.98-17.82Q5.98-16.26 6.77-15.63 7.57-14.99 9.62-14.33L9.62-14.33 13.21-13.18Q15.19-12.55 16.3-11.8 17.41-11.06 18.01-9.8 18.6-8.54 18.6-6.62L18.6-6.62Q18.6-4.79 17.97-3.42 17.33-2.05 16.2-1.27 15.06-0.49 13.7-0.12 12.33 0.24 10.69 0.24L10.69 0.24Q6.64 0.24 2.66-1.68L2.66-1.68ZM82.22 0.24L82.22 0.24Q80.27 0.2 79.01-0.39 77.76-0.98 77.05-2.23 76.34-3.49 76.07-5.19 75.8-6.88 75.8-9.47L75.8-9.47 75.8-21.85 72.07-21.85 72.07-24.05 75.9-24.05 76.51-30.93 78.93-30.93 78.93-24.05 86.45-24.05 86.45-21.85 78.93-21.85 78.93-9.42Q78.93-7.08 79.18-5.62 79.44-4.15 80.04-3.45 80.64-2.76 81.3-2.55 81.96-2.34 83.05-2.34L83.05-2.34Q85.57-2.34 86.72-2.51L86.72-2.51 86.84 0Q84.88 0.24 82.22 0.24ZM144.65-6.79L144.65-6.79Q144.65-2.25 149.92-2.25L149.92-2.25Q151.48-2.25 153.11-2.71 154.73-3.17 155.78-3.86L155.78-3.86 155.78-11.55 154.41-11.55Q153.24-11.55 152.26-11.49 151.29-11.43 150.09-11.28 148.9-11.13 147.99-10.79 147.09-10.45 146.3-9.95 145.5-9.45 145.07-8.64 144.65-7.84 144.65-6.79ZM143.72-20.58L143.11-23Q147.43-24.41 150.63-24.41L150.63-24.41Q152.44-24.41 153.88-23.91 155.32-23.41 156.45-22.35 157.59-21.29 158.21-19.45 158.83-17.6 158.83-15.06L158.83-15.06 158.83 0 156.59 0 156.1-1.61Q155.22-0.9 153.27-0.33 151.31 0.24 149.43 0.24L149.43 0.24Q145.92 0.24 143.82-1.59 141.72-3.42 141.72-6.93L141.72-6.93Q141.72-8.06 142.07-9.02 142.43-9.99 143.29-10.89 144.16-11.79 145.49-12.44 146.82-13.09 148.9-13.46 150.97-13.84 153.63-13.84L153.63-13.84 155.78-13.84 155.78-14.62Q155.76-18.63 154.38-20.24 153-21.85 150.48-21.85L150.48-21.85Q150.12-21.85 149.69-21.81 149.26-21.78 148.94-21.74 148.63-21.7 148.08-21.59 147.53-21.48 147.27-21.45 147.02-21.41 146.36-21.25 145.7-21.09 145.53-21.04 145.36-21 144.59-20.8 143.82-20.61 143.72-20.58L143.72-20.58ZM219.52 9.52L219.52 9.52Q217.72 9.52 215.49 8.67L215.49 8.67 215.98 6.18 216.01 6.15Q218.2 6.81 219.3 6.81L219.3 6.81Q219.67 6.81 219.99 6.73 220.3 6.64 220.57 6.43 220.84 6.23 221.05 6.03 221.26 5.83 221.48 5.44 221.7 5.05 221.84 4.79 221.99 4.52 222.17 3.99 222.35 3.47 222.46 3.17 222.57 2.88 222.77 2.26 222.96 1.64 223.06 1.34L223.06 1.34 223.72-0.63 213.83-24.05 217.18-24.05 225.09-4.05 231.56-24.05 234.88-24.05 226.43 0.39Q225.72 2.44 225.27 3.6 224.82 4.76 224.17 6.07 223.53 7.37 222.92 8.02 222.31 8.67 221.44 9.09 220.57 9.52 219.52 9.52ZM359.85-28.91L359.85-15.63 361.9-15.63Q364.46-15.63 365.76-15.7 367.05-15.77 368.58-16.09 370.1-16.41 370.76-17.09 371.42-17.77 371.88-18.98 372.35-20.19 372.35-22.05L372.35-22.05Q372.35-25.98 370.71-27.44 369.08-28.91 365.44-28.91L365.44-28.91 359.85-28.91ZM356.72-31.35L365.24-31.35Q367.73-31.35 369.53-30.91 371.32-30.47 372.7-29.43 374.08-28.39 374.78-26.56 375.47-24.73 375.47-22.09L375.47-22.09Q375.47-19.87 374.91-18.27 374.35-16.67 373.34-15.67 372.32-14.67 370.65-14.1 368.98-13.53 367.06-13.31 365.15-13.09 362.46-13.09L362.46-13.09 359.85-13.09 359.85 0 356.72 0 356.72-31.35ZM433.82-24.05L433.94-21.95Q435.38-22.92 437.59-23.63 439.8-24.34 441.66-24.41L441.66-24.41 441.66-21.8Q439.53-21.8 437.35-21.15 435.16-20.51 433.97-19.63L433.97-19.63 433.97 0 430.84 0 430.84-24.05 433.82-24.05ZM512.49-2.97Q510.18 0.24 505.42 0.24 500.66 0.24 498.36-2.97 496.05-6.18 496.05-12.08L496.05-12.08Q496.05-18.26 498.31-21.34 500.57-24.41 505.42-24.41 510.28-24.41 512.54-21.34 514.8-18.26 514.8-12.08L514.8-12.08Q514.8-6.18 512.49-2.97ZM507.91-21.37Q506.84-21.85 505.42-21.85 504.01-21.85 502.93-21.37 501.86-20.9 501.15-20.07 500.44-19.24 499.99-17.99 499.54-16.75 499.36-15.31 499.17-13.87 499.17-12.08L499.17-12.08Q499.17-9.79 499.47-8.09 499.76-6.4 500.46-5.05 501.15-3.71 502.4-3.03 503.64-2.34 505.42-2.34 507.21-2.34 508.45-3.03 509.7-3.71 510.39-5.05 511.09-6.4 511.38-8.09 511.67-9.79 511.67-12.08L511.67-12.08Q511.67-13.87 511.49-15.31 511.31-16.75 510.86-17.99 510.4-19.24 509.7-20.07 508.99-20.9 507.91-21.37ZM579.2 0.24L579.2 0.24Q577.25 0.2 575.99-0.39 574.73-0.98 574.02-2.23 573.32-3.49 573.05-5.19 572.78-6.88 572.78-9.47L572.78-9.47 572.78-21.85 569.04-21.85 569.04-24.05 572.88-24.05 573.49-30.93 575.9-30.93 575.9-24.05 583.42-24.05 583.42-21.85 575.9-21.85 575.9-9.42Q575.9-7.08 576.16-5.62 576.42-4.15 577.02-3.45 577.61-2.76 578.27-2.55 578.93-2.34 580.03-2.34L580.03-2.34Q582.55-2.34 583.69-2.51L583.69-2.51 583.81 0Q581.86 0.24 579.2 0.24ZM648.44-21.85L648.44-21.85Q645.36-21.85 643.72-19.71 642.09-17.58 641.8-13.65L641.8-13.65 654.17-13.65 654.17-14.87Q654.17-18.07 652.62-19.96 651.07-21.85 648.44-21.85ZM648.85-2.34L648.85-2.34Q652.61-2.34 655.69-4.3L655.69-4.3 656.64-1.83Q654.98-0.81 652.93-0.28 650.88 0.24 649.02 0.24L649.02 0.24Q644.09 0.24 641.38-2.73 638.67-5.71 638.67-12.11L638.67-12.11Q638.67-18.24 641.31-21.33 643.94-24.41 648.41-24.41L648.41-24.41Q652.44-24.41 654.76-21.78 657.08-19.14 657.08-14.75L657.08-14.75Q657.08-13.75 656.88-11.45L656.88-11.45 641.8-11.45Q641.82-9.28 642.23-7.63 642.65-5.98 643.28-4.99 643.92-4 644.86-3.39 645.8-2.78 646.75-2.56 647.7-2.34 648.85-2.34ZM728.12-4.15L728.12-4.15 729.29-1.93Q726.31 0.24 722.19 0.24L722.19 0.24Q717.92 0.24 715.18-2.95 712.45-6.15 712.45-12.08L712.45-12.08Q712.45-24.41 721.92-24.41L721.92-24.41Q725.24-24.41 728.34-22.95L728.34-22.95 728.34-16.65 725.85-16.41 725.85-21.29Q724.24-21.92 721.87-21.92L721.87-21.92Q720.06-21.92 718.81-21.22 717.55-20.51 716.85-19.14 716.16-17.77 715.86-16.05 715.57-14.33 715.57-12.04L715.57-12.04Q715.57-7.37 717.46-4.83 719.36-2.29 722.53-2.29L722.53-2.29Q725.39-2.29 728.12-4.15ZM792.67 0.24L792.67 0.24Q790.72 0.2 789.46-0.39 788.2-0.98 787.49-2.23 786.78-3.49 786.52-5.19 786.25-6.88 786.25-9.47L786.25-9.47 786.25-21.85 782.51-21.85 782.51-24.05 786.35-24.05 786.96-30.93 789.37-30.93 789.37-24.05 796.89-24.05 796.89-21.85 789.37-21.85 789.37-9.42Q789.37-7.08 789.63-5.62 789.89-4.15 790.48-3.45 791.08-2.76 791.74-2.55 792.4-2.34 793.5-2.34L793.5-2.34Q796.01-2.34 797.16-2.51L797.16-2.51 797.28 0Q795.33 0.24 792.67 0.24ZM861.9-21.85L861.9-21.85Q858.83-21.85 857.19-19.71 855.56-17.58 855.26-13.65L855.26-13.65 867.64-13.65 867.64-14.87Q867.64-18.07 866.09-19.96 864.54-21.85 861.9-21.85ZM862.32-2.34L862.32-2.34Q866.08-2.34 869.15-4.3L869.15-4.3 870.11-1.83Q868.45-0.81 866.4-0.28 864.35 0.24 862.49 0.24L862.49 0.24Q857.56 0.24 854.85-2.73 852.14-5.71 852.14-12.11L852.14-12.11Q852.14-18.24 854.77-21.33 857.41-24.41 861.88-24.41L861.88-24.41Q865.91-24.41 868.23-21.78 870.55-19.14 870.55-14.75L870.55-14.75Q870.55-13.75 870.35-11.45L870.35-11.45 855.26-11.45Q855.29-9.28 855.7-7.63 856.12-5.98 856.75-4.99 857.39-4 858.33-3.39 859.27-2.78 860.22-2.56 861.17-2.34 862.32-2.34ZM941.39-22.53L941.39-33.15 944.52-33.15 944.52 0 941.98 0 941.73-1.22Q939 0.24 935.83 0.24L935.83 0.24Q933.58 0.24 931.82-0.43 930.06-1.1 928.71-2.53 927.36-3.96 926.63-6.36 925.91-8.76 925.91-12.04L925.91-12.04Q925.91-14.6 926.4-16.69 926.89-18.77 927.73-20.19 928.58-21.61 929.75-22.57 930.92-23.54 932.26-23.97 933.61-24.41 935.09-24.41L935.09-24.41Q936.75-24.41 938.19-24.02 939.64-23.63 941.39-22.53L941.39-22.53ZM941.39-3.34L941.39-3.34 941.39-19.75Q939.39-20.9 938.06-21.37 936.73-21.85 935.48-21.85L935.48-21.85Q932.51-21.85 930.77-19.37 929.04-16.89 929.04-11.99L929.04-11.99Q929.04-2.34 936.27-2.34L936.27-2.34 936.95-2.34Q939.24-2.34 941.39-3.34Z" opacity="1" transform="matrix(1,0,0,1,0,0)" fill="#ffffff" class="slogan-text-1" data-fill-palette-color="quaternary" id="text-1"></path></svg></g></svg></g></svg></g></svg></g><g></g></svg></g></svg></g><defs></defs></svg><rect width="341.41138079999996" height="97.20882325565701" fill="none" stroke="none" visibility="hidden"></rect></g></svg></g></svg>